<svg width="186" height="25" viewBox="0 0 186 25" version="1.1" xmlns="http://www.w3.org/2000/svg"><title>gemiini-logo</title><g stroke="none" stroke-width="1" fill="none" fill-rule="evenodd"><g><path d="M13.88 15.185c0-1.92-.118-2.182-1.06-2.444-.19-.046-.59-.07-.802-.07-.094 0-.188-.048-.188-.142 0-.143.118-.19.377-.19 1.06 0 2.545.07 2.663.07.117 0 1.602-.07 2.31-.07.258 0 .376.047.376.19 0 .094-.094.142-.188.142-.165 0-.306.024-.59.07-.636.12-.825.524-.87 1.354-.05.76-.05 1.47-.05 2.467v2.66c0 1.067-.022 1.114-.305 1.28-1.508.807-3.63 1.068-4.996 1.068-1.79 0-5.137-.237-7.753-2.54C1.367 17.773 0 15.234 0 12.27 0 8.47 1.838 5.787 3.935 4.46c2.12-1.33 4.454-1.495 6.27-1.495 1.483 0 3.157.31 3.604.403.494.12 1.32.214 1.908.238.235.023.283.118.283.213 0 .332-.164.996-.164 3.37 0 .378-.047.497-.212.497-.118 0-.14-.142-.165-.356-.025-.33-.143-.996-.496-1.565-.59-.9-2.498-1.922-5.538-1.922-1.484 0-3.252.142-5.043 1.566C3.016 6.5 2.05 8.66 2.05 11.435c0 3.346 1.673 5.767 2.498 6.573 1.86 1.826 4.006 2.538 6.174 2.538.85 0 2.074-.142 2.686-.498.307-.167.472-.427.472-.83v-4.035M39.967 10.178c0-3.7 0-4.365-.047-5.125-.047-.807-.236-1.186-1.014-1.353-.188-.047-.588-.07-.8-.07-.095 0-.19-.048-.19-.143 0-.142.12-.19.378-.19.542 0 1.178 0 1.696.024l.967.048c.165 0 4.854 0 5.396-.023.448-.024.825-.07 1.014-.12.118-.022.212-.118.33-.118.07 0 .094.096.094.214 0 .167-.117.452-.188 1.116-.023.237-.07 1.28-.117 1.566-.024.12-.07.26-.166.26-.142 0-.19-.118-.19-.307 0-.166-.023-.57-.14-.855-.166-.38-.4-.664-1.673-.806-.4-.048-2.97-.07-3.23-.07-.094 0-.14.07-.14.236v6.55c0 .165.023.236.14.236.307 0 3.206 0 3.748-.047.566-.05.896-.096 1.108-.333.164-.19.258-.31.353-.31.07 0 .118.05.118.19 0 .143-.118.547-.19 1.33-.046.474-.093 1.352-.093 1.518 0 .19 0 .45-.164.45-.118 0-.165-.093-.165-.212 0-.238 0-.475-.093-.783-.094-.332-.306-.736-1.226-.83-.635-.072-2.968-.12-3.37-.12-.117 0-.163.072-.163.167v2.088c0 .806-.024 3.56 0 4.057.07 1.638.424 1.946 2.733 1.946.613 0 1.65 0 2.263-.26.612-.262.895-.737 1.06-1.71.047-.26.094-.355.212-.355.14 0 .14.19.14.356 0 .19-.187 1.802-.305 2.3-.165.617-.353.617-1.273.617-1.767 0-3.063-.047-3.982-.07-.92-.048-1.484-.072-1.838-.072-.047 0-.448 0-.943.024-.47 0-1.013.046-1.366.046-.26 0-.378-.047-.378-.19 0-.07.048-.142.19-.142.21 0 .494-.047.706-.095.47-.096.59-.618.683-1.306.117-.996.117-2.87.117-5.15V10.18M90.256 18.175c.094.854.26 2.183 1.272 2.515.683.214 1.296.214 1.532.214.118 0 .19.024.19.118 0 .143-.214.214-.497.214-.518 0-3.063-.07-3.935-.142-.542-.048-.66-.12-.66-.237 0-.096.047-.143.165-.167.118-.023.142-.427.094-.854l-1.13-12.244h-.07l-5.775 12.34c-.495 1.043-.566 1.257-.777 1.257-.165 0-.283-.24-.73-1.093-.614-1.162-2.64-5.268-2.758-5.505-.212-.427-2.85-6.122-3.11-6.762h-.095l-.943 11.01c-.025.38-.025.806-.025 1.21 0 .356.26.664.613.735.4.095.754.12.896.12.094 0 .19.046.19.117 0 .167-.143.214-.426.214-.872 0-2.003-.07-2.19-.07-.213 0-1.344.07-1.98.07-.236 0-.402-.047-.402-.214 0-.07.118-.118.236-.118.19 0 .354 0 .707-.07.777-.144.847-1.07.942-1.97l1.696-15.472c.024-.26.118-.427.26-.427.14 0 .236.095.353.356l7.212 14.927 6.93-14.902c.093-.214.187-.38.352-.38.165 0 .235.19.283.64l1.58 14.57M142.877 18.01c.048 1.945.283 2.562.92 2.75.447.12.966.144 1.178.144.118 0 .188.047.188.142 0 .143-.14.19-.424.19-1.344 0-2.287-.07-2.5-.07-.21 0-1.2.07-2.26.07-.237 0-.378-.024-.378-.19 0-.095.07-.142.188-.142.19 0 .613-.024.967-.143.59-.164.707-.852.707-3.012l.023-13.596c0-.926.07-1.187.26-1.187.188 0 .588.522.824.76.355.403 3.865 4.223 7.495 8.138 2.333 2.516 4.902 5.41 5.656 6.193l-.26-12.054c-.022-1.542-.187-2.064-.918-2.254-.424-.095-.966-.12-1.154-.12-.166 0-.19-.07-.19-.164 0-.143.19-.167.473-.167 1.06 0 2.192.07 2.45.07.26 0 1.038-.07 2.004-.07.26 0 .425.024.425.167 0 .094-.096.165-.26.165-.118 0-.283 0-.566.07-.778.167-.873.69-.873 2.113l-.045 13.904c0 1.566-.047 1.685-.212 1.685-.19 0-.472-.26-1.72-1.52-.26-.236-3.653-3.724-6.15-6.43-2.735-2.965-5.398-5.955-6.152-6.81l.307 11.367M183.504 14.355c0 2.278 0 4.153.118 5.15.07.687.212 1.21.92 1.304.33.047.848.094 1.06.094.14 0 .188.07.188.142 0 .12-.117.19-.377.19-1.296 0-2.78-.07-2.898-.07-.118 0-1.603.07-2.31.07-.26 0-.377-.047-.377-.19 0-.07.047-.142.188-.142.213 0 .495-.047.707-.095.472-.096.59-.618.684-1.306.118-.996.118-2.87.118-5.15V10.18c0-3.7 0-4.365-.047-5.125-.047-.807-.283-1.21-.8-1.33-.26-.07-.567-.094-.732-.094-.094 0-.19-.048-.19-.143 0-.142.12-.19.38-.19.776 0 2.26.07 2.38.07.116 0 1.6-.07 2.308-.07.26 0 .377.048.377.19 0 .095-.093.142-.188.142-.164 0-.306.023-.59.07-.635.12-.824.523-.87 1.353-.048.76-.048 1.424-.048 5.125v4.177" fill="#333B80"/><path d="M108.93 9.525c0-4.942 0-5.853-.067-6.893-.064-1.106-.387-1.66-1.097-1.82-.356-.098-.776-.13-1.163-.13-.323 0-.517-.066-.517-.326 0-.195.26-.26.775-.26 1.23 0 3.263.097 4.2.097.807 0 2.712-.097 3.94-.097.42 0 .677.065.677.26 0 .26-.193.325-.516.325-.322 0-.58.034-.968.098-.872.163-1.13.716-1.194 1.854-.065 1.04-.065 1.95-.065 6.893v5.723c0 3.155 0 5.724.13 7.122.096.877.322 1.463 1.29 1.593.452.065 1.163.13 1.647.13.356 0 .517.098.517.26 0 .228-.258.325-.613.325-2.132 0-4.166-.097-5.038-.097-.743 0-2.777.098-4.07.098-.42 0-.645-.097-.645-.325 0-.162.13-.26.518-.26.484 0 .872-.065 1.162-.13.646-.13.84-.683.937-1.626.162-1.365.162-3.934.162-7.09V9.526M120.15 9.525c0-4.942 0-5.853-.065-6.893-.064-1.106-.387-1.66-1.098-1.82-.355-.098-.775-.13-1.162-.13-.323 0-.517-.066-.517-.326 0-.195.258-.26.775-.26 1.227 0 3.26.097 4.198.097.808 0 2.713-.097 3.94-.097.42 0 .68.065.68.26 0 .26-.194.325-.518.325-.322 0-.58.034-.97.098-.87.163-1.13.716-1.193 1.854-.066 1.04-.066 1.95-.066 6.893v5.723c0 3.155 0 5.724.13 7.122.096.877.322 1.463 1.29 1.593.453.065 1.164.13 1.647.13.357 0 .52.098.52.26 0 .228-.26.325-.614.325-2.133 0-4.167-.097-5.04-.097-.742 0-2.776.098-4.068.098-.42 0-.645-.097-.645-.325 0-.162.13-.26.516-.26.484 0 .87-.065 1.162-.13.646-.13.84-.683.937-1.626.16-1.365.16-3.934.16-7.09V9.526" fill="#F0A74A"/></g></g></svg>