<svg width="186" height="25" viewBox="0 0 186 25" xmlns="http://www.w3.org/2000/svg"><title>gemiini-logo</title><g fill="none" fill-rule="evenodd"><path d="M13.88 15.185c0-1.92-.118-2.182-1.06-2.444-.19-.045-.59-.07-.802-.07-.094 0-.188-.047-.188-.14 0-.144.118-.19.377-.19 1.06 0 2.545.07 2.663.07.117 0 1.602-.07 2.31-.07.258 0 .376.046.376.19 0 .093-.094.14-.188.14-.165 0-.306.025-.59.07-.636.12-.825.525-.87 1.355-.05.76-.05 1.47-.05 2.467v2.66c0 1.067-.022 1.114-.305 1.28-1.508.807-3.63 1.068-4.996 1.068-1.79 0-5.137-.237-7.753-2.54C1.367 17.773 0 15.234 0 12.27c0-3.8 1.838-6.483 3.935-7.81 2.12-1.33 4.454-1.495 6.27-1.495 1.483 0 3.157.31 3.604.403.493.12 1.32.214 1.907.238.235.023.283.118.283.213 0 .33-.164.995-.164 3.37 0 .377-.047.496-.212.496-.118 0-.14-.142-.165-.356-.026-.33-.144-.996-.497-1.565-.59-.9-2.498-1.922-5.538-1.922-1.484 0-3.252.142-5.043 1.566C3.016 6.5 2.05 8.66 2.05 11.434c0 3.346 1.673 5.767 2.498 6.573 1.86 1.826 4.006 2.538 6.174 2.538.85 0 2.074-.142 2.686-.498.307-.167.472-.427.472-.83v-4.035m26.087-5.005c0-3.7 0-4.365-.047-5.125-.047-.807-.236-1.186-1.014-1.353-.188-.047-.588-.07-.8-.07-.095 0-.19-.048-.19-.143 0-.142.12-.19.378-.19.542 0 1.178 0 1.696.024l.967.05c.165 0 4.854 0 5.396-.024.448-.024.825-.07 1.014-.12.118-.022.212-.118.33-.118.07 0 .094.096.094.214 0 .167-.116.452-.187 1.116-.023.237-.07 1.28-.117 1.566-.024.12-.07.26-.166.26-.142 0-.19-.118-.19-.307 0-.166-.023-.57-.14-.855-.166-.38-.4-.664-1.673-.806-.4-.048-2.97-.07-3.23-.07-.094 0-.14.07-.14.236v6.55c0 .165.023.236.14.236.307 0 3.206 0 3.748-.047.566-.05.896-.095 1.108-.332.164-.19.258-.31.353-.31.07 0 .118.05.118.19 0 .143-.118.547-.19 1.33-.046.474-.093 1.352-.093 1.518 0 .19 0 .45-.163.45-.118 0-.165-.093-.165-.212 0-.238 0-.475-.093-.783-.095-.33-.307-.735-1.227-.83-.635-.07-2.968-.12-3.37-.12-.117 0-.163.073-.163.168v2.088c0 .806-.024 3.56 0 4.057.07 1.638.424 1.946 2.733 1.946.613 0 1.65 0 2.263-.26.612-.263.895-.738 1.06-1.71.047-.26.094-.356.212-.356.14 0 .14.19.14.356 0 .19-.187 1.802-.305 2.3-.165.617-.353.617-1.273.617-1.767 0-3.063-.047-3.982-.07-.92-.048-1.484-.072-1.838-.072-.047 0-.448 0-.943.024-.47 0-1.013.045-1.366.045-.26 0-.377-.047-.377-.19 0-.07.048-.142.19-.142.21 0 .494-.047.706-.095.47-.096.59-.618.682-1.306.117-.996.117-2.87.117-5.15V10.18m50.286 7.995c.094.854.26 2.183 1.272 2.515.683.214 1.296.214 1.532.214.118 0 .19.024.19.118 0 .143-.214.214-.497.214-.518 0-3.063-.07-3.935-.142-.542-.048-.66-.12-.66-.237 0-.096.047-.143.165-.167.118-.023.142-.427.094-.854l-1.13-12.244h-.07l-5.775 12.34c-.495 1.043-.566 1.257-.777 1.257-.165 0-.283-.24-.73-1.094-.614-1.162-2.64-5.268-2.758-5.505-.212-.426-2.85-6.12-3.11-6.76h-.095l-.943 11.01c-.026.38-.026.805-.026 1.21 0 .355.26.663.613.734.4.095.754.12.896.12.094 0 .19.046.19.117 0 .168-.143.215-.426.215-.872 0-2.003-.07-2.19-.07-.213 0-1.344.07-1.98.07-.236 0-.402-.047-.402-.214 0-.07.118-.117.236-.117.19 0 .355 0 .708-.07.777-.144.847-1.07.942-1.97L73.286 3.39c.024-.26.118-.426.26-.426.14 0 .236.095.353.356l7.21 14.927 6.93-14.902c.094-.214.188-.38.353-.38.165 0 .235.19.283.64l1.58 14.57m52.62-.165c.05 1.945.284 2.562.92 2.75.448.12.967.144 1.18.144.117 0 .187.047.187.142 0 .143-.14.19-.424.19-1.345 0-2.288-.07-2.5-.07-.21 0-1.2.07-2.26.07-.238 0-.38-.024-.38-.19 0-.095.07-.142.19-.142.19 0 .612-.024.966-.143.59-.163.707-.85.707-3.01l.023-13.597c0-.926.07-1.187.26-1.187.188 0 .588.522.824.76.355.403 3.865 4.223 7.495 8.138 2.333 2.516 4.902 5.41 5.656 6.193l-.26-12.054c-.02-1.542-.186-2.064-.917-2.254-.424-.096-.966-.12-1.154-.12-.167 0-.19-.07-.19-.165 0-.143.19-.167.472-.167 1.06 0 2.192.07 2.45.07.26 0 1.038-.07 2.004-.07.26 0 .425.024.425.167 0 .094-.095.165-.26.165-.117 0-.282 0-.565.07-.778.167-.873.69-.873 2.113l-.045 13.904c0 1.566-.047 1.685-.212 1.685-.19 0-.472-.26-1.72-1.52-.26-.236-3.653-3.724-6.15-6.43-2.735-2.965-5.398-5.955-6.152-6.81l.307 11.367m40.624-3.655c0 2.278 0 4.153.118 5.15.07.687.212 1.21.92 1.304.33.046.848.093 1.06.093.14 0 .188.07.188.142 0 .12-.117.19-.377.19-1.296 0-2.78-.07-2.898-.07-.118 0-1.603.07-2.31.07-.26 0-.377-.047-.377-.19 0-.07.047-.142.188-.142.213 0 .495-.047.707-.095.472-.096.59-.618.684-1.306.118-.996.118-2.87.118-5.15V10.18c0-3.7 0-4.365-.047-5.125-.047-.807-.283-1.21-.8-1.33-.26-.07-.567-.094-.732-.094-.094 0-.19-.047-.19-.142 0-.142.12-.19.38-.19.776 0 2.26.07 2.38.07.116 0 1.6-.07 2.308-.07.26 0 .377.048.377.19 0 .095-.092.142-.187.142-.164 0-.306.023-.59.07-.635.12-.824.523-.87 1.353-.048.76-.048 1.424-.048 5.125v4.177" fill="#333B80"/><path d="M108.93 9.525c0-4.942 0-5.853-.067-6.893-.064-1.106-.387-1.66-1.097-1.82-.356-.098-.776-.13-1.163-.13-.323 0-.517-.066-.517-.326 0-.195.26-.26.775-.26 1.23 0 3.264.097 4.2.097.808 0 2.713-.097 3.94-.097.42 0 .678.065.678.26 0 .26-.193.325-.516.325-.322 0-.58.035-.968.1-.872.162-1.13.715-1.194 1.853-.065 1.04-.065 1.95-.065 6.893v5.723c0 3.154 0 5.723.13 7.12.096.878.322 1.464 1.29 1.594.452.065 1.163.13 1.647.13.356 0 .517.098.517.26 0 .228-.26.325-.614.325-2.132 0-4.166-.098-5.038-.098-.743 0-2.777.098-4.07.098-.42 0-.645-.097-.645-.325 0-.162.13-.26.518-.26.485 0 .873-.065 1.163-.13.646-.13.84-.683.937-1.626.162-1.366.162-3.935.162-7.09V9.525m11.218 0c0-4.943 0-5.854-.065-6.894-.064-1.106-.387-1.66-1.098-1.82-.355-.098-.775-.13-1.162-.13-.323 0-.517-.066-.517-.326 0-.195.258-.26.775-.26 1.227 0 3.26.097 4.198.097.81 0 2.714-.097 3.94-.097.42 0 .68.065.68.26 0 .26-.193.325-.517.325-.322 0-.58.035-.97.1-.87.162-1.13.715-1.193 1.853-.066 1.04-.066 1.95-.066 6.893v5.723c0 3.154 0 5.723.13 7.12.096.878.322 1.464 1.29 1.594.453.065 1.164.13 1.647.13.358 0 .52.098.52.26 0 .228-.26.325-.613.325-2.133 0-4.167-.098-5.04-.098-.742 0-2.776.098-4.068.098-.42 0-.646-.097-.646-.325 0-.162.13-.26.516-.26.484 0 .87-.065 1.162-.13.646-.13.84-.683.937-1.626.16-1.366.16-3.935.16-7.09V9.525" fill="#F0A74A"/></g></svg>